<svg width="30" height="36" viewBox="0 0 30 36" fill="none" xmlns="http://www.w3.org/2000/svg">
<path d="M17.9875 0.0122927L29.1429 0L10.4273 18.7053L5.54965 23.5554L0 17.9992L17.9875 0.0122927ZM17.8837 16.7139C18.0285 16.5227 18.2949 16.6169 18.497 16.5923L29.1333 16.5951L19.4395 26.2789L13.8612 20.7349L17.8837 16.7139Z" fill="black"/>
<path d="M8.30058 26.2885L13.8612 20.7349L19.4395 26.2789L19.4627 26.3035L13.8625 31.8516L8.30058 26.2885Z" fill="black"/>
<path d="M13.8625 31.8516L19.4627 26.3035L29.1374 35.9874C25.4932 35.9956 21.8503 35.9846 18.2075 35.9928C17.9998 36.0393 17.8714 35.8494 17.739 35.7319L13.8625 31.8516Z" fill="black"/>
</svg>
